<?xml version="1.0" encoding="utf-8"?>
<!-- Generator: Adobe Illustrator 25.2.1, SVG Export Plug-In . SVG Version: 6.00 Build 0)  -->
<svg version="1.0" id="Layer_1" xmlns="http://www.w3.org/2000/svg" xmlns:xlink="http://www.w3.org/1999/xlink" x="0px" y="0px"
	 viewBox="0 0 90.89 56.77" style="enable-background:new 0 0 90.89 56.77;" xml:space="preserve">
<style type="text/css">
	.st0{fill:#419B49;}
</style>
<g>
	<path class="st0" d="M55.19,54.91H35.7c-2.38,0-4.31-1.93-4.31-4.31V10.01c0-2.38,1.93-4.31,4.31-4.31h19.49
		c2.38,0,4.31,1.93,4.31,4.31v25.44c0,0.48-0.39,0.87-0.87,0.87c-0.48,0-0.87-0.39-0.87-0.87V10.01c0-1.42-1.16-2.58-2.58-2.58H35.7
		c-1.42,0-2.58,1.16-2.58,2.58V50.6c0,1.42,1.16,2.58,2.58,2.58h19.49c1.42,0,2.58-1.16,2.58-2.58c0-0.48,0.39-0.87,0.87-0.87
		c0.48,0,0.87,0.39,0.87,0.87C59.5,52.98,57.57,54.91,55.19,54.91z"/>
	<path class="st0" d="M58.63,44c-0.23,0-0.45-0.09-0.61-0.26c-0.08-0.08-0.15-0.18-0.19-0.28c-0.04-0.1-0.06-0.22-0.06-0.33
		c0-0.23,0.09-0.45,0.26-0.61c0.2-0.2,0.5-0.29,0.78-0.23c0.06,0.01,0.11,0.03,0.16,0.05c0.05,0.02,0.1,0.05,0.15,0.08
		c0.05,0.03,0.09,0.07,0.13,0.11c0.16,0.16,0.26,0.39,0.26,0.61c0,0.23-0.09,0.45-0.26,0.62c-0.04,0.04-0.08,0.08-0.13,0.11
		c-0.05,0.03-0.1,0.06-0.15,0.08c-0.05,0.02-0.1,0.04-0.16,0.05C58.75,44,58.69,44,58.63,44z"/>
	<path class="st0" d="M50.57,7.44h-9.7C40.39,7.44,40,7.05,40,6.57V3.82c0-0.97,0.79-1.75,1.75-1.75h7.93
		c0.97,0,1.75,0.79,1.75,1.75v2.75C51.43,7.05,51.05,7.44,50.57,7.44z M41.74,5.7h7.96V3.82L41.75,3.8L41.74,5.7z"/>
	<path class="st0" d="M45.45,42.44c-0.06,0-0.12-0.01-0.18-0.02c-0.4-0.08-0.69-0.44-0.69-0.85v-10.2h-6.44
		c-0.3,0-0.57-0.15-0.73-0.4c-0.16-0.25-0.18-0.57-0.05-0.83l7.1-15.03c0.17-0.37,0.58-0.57,0.97-0.48c0.4,0.09,0.68,0.44,0.68,0.85
		v8.37h6.65c0.29,0,0.56,0.15,0.73,0.39s0.19,0.55,0.07,0.82l-7.31,16.86C46.1,42.24,45.79,42.44,45.45,42.44z M39.51,29.64h5.94
		c0.48,0,0.87,0.39,0.87,0.87v6.88l5.12-11.81h-6.19c-0.48,0-0.87-0.39-0.87-0.87v-5.37L39.51,29.64z"/>
</g>
</svg>
