<?xml version="1.0" encoding="utf-8"?>
<!-- Generator: Adobe Illustrator 25.2.1, SVG Export Plug-In . SVG Version: 6.00 Build 0)  -->
<svg version="1.0" id="Layer_1" xmlns="http://www.w3.org/2000/svg" xmlns:xlink="http://www.w3.org/1999/xlink" x="0px" y="0px"
	 viewBox="0 0 90.89 56.77" style="enable-background:new 0 0 90.89 56.77;" xml:space="preserve">
<style type="text/css">
	.st0{fill:#419B49;}
</style>
<path class="st0" d="M14.83,50.61H1.97c-0.26,0-0.5-0.13-0.63-0.35s-0.14-0.49-0.03-0.72l7.2-14.02L5.43,36.7
	c-0.29,0.11-0.61,0.03-0.81-0.2c-0.2-0.23-0.25-0.56-0.11-0.83l8.4-16.37l-2.69,1.04c-0.29,0.11-0.61,0.03-0.81-0.2
	c-0.2-0.23-0.25-0.56-0.11-0.83l9.14-17.8c0.13-0.25,0.38-0.4,0.66-0.4s0.53,0.15,0.66,0.4l9.14,17.8c0.14,0.27,0.1,0.6-0.11,0.83
	c-0.21,0.23-0.53,0.31-0.81,0.2l-2.69-1.04l3.52,6.87c0.19,0.36,0.04,0.81-0.32,0.99c-0.36,0.19-0.81,0.04-0.99-0.32l-4.41-8.59
	c-0.14-0.27-0.1-0.6,0.11-0.83c0.21-0.23,0.53-0.31,0.81-0.2l2.69,1.04l-7.6-14.8l-7.6,14.8l2.69-1.04c0.28-0.11,0.61-0.03,0.81,0.2
	c0.2,0.23,0.25,0.56,0.11,0.83L6.7,34.62l3.08-1.19c0.29-0.11,0.61-0.03,0.81,0.2c0.2,0.23,0.25,0.56,0.11,0.83L3.18,49.13h11.65
	c0.41,0,0.74,0.33,0.74,0.74S15.24,50.61,14.83,50.61z"/>
<path class="st0" d="M9.38,55.23c-0.29,0-0.57-0.17-0.68-0.46c-0.16-0.38,0.02-0.81,0.4-0.96c2.46-1.01,2.74-4.06,2.74-4.09
	c0.03-0.41,0.39-0.71,0.8-0.68c0.41,0.03,0.71,0.39,0.68,0.8c-0.01,0.16-0.36,3.98-3.65,5.33C9.57,55.21,9.48,55.23,9.38,55.23z"/>
<path class="st0" d="M14,55.32c-0.15,0-0.3-0.04-0.42-0.13c-0.33-0.23-0.41-0.7-0.18-1.03l24.38-34.62c0.14-0.2,0.36-0.31,0.6-0.31
	c0,0,0,0,0,0c0.24,0,0.47,0.12,0.6,0.32l6.8,9.92c0.23,0.34,0.14,0.8-0.19,1.03c-0.34,0.23-0.8,0.14-1.03-0.19l-6.2-9.05L14.6,55
	C14.46,55.21,14.23,55.32,14,55.32z"/>
<path class="st0" d="M62.09,55.32c-0.24,0-0.47-0.11-0.61-0.32l-7.59-11.07c-0.23-0.34-0.14-0.8,0.19-1.03
	c0.34-0.23,0.8-0.14,1.03,0.19l7.59,11.07c0.23,0.34,0.14,0.8-0.19,1.03C62.38,55.28,62.23,55.32,62.09,55.32z"/>
<path class="st0" d="M62.09,55.32c-0.37,0-0.69-0.27-0.73-0.65c-0.05-0.4,0.24-0.77,0.64-0.82l25.4-3.09L69.2,20.7H38.37
	c-0.41,0-0.74-0.33-0.74-0.74s0.33-0.74,0.74-0.74h31.24c0.26,0,0.5,0.13,0.63,0.36l19.01,31.39c0.13,0.21,0.14,0.48,0.03,0.71
	c-0.11,0.23-0.33,0.38-0.57,0.41l-26.54,3.23C62.15,55.32,62.12,55.32,62.09,55.32z"/>
<path class="st0" d="M46.67,55.32c-0.31,0-0.6-0.2-0.7-0.51l-8.85-27.44c-0.13-0.39,0.09-0.8,0.48-0.93
	c0.39-0.13,0.8,0.09,0.93,0.48l8.85,27.44c0.13,0.39-0.09,0.8-0.48,0.93C46.82,55.31,46.75,55.32,46.67,55.32z"/>
<path class="st0" d="M62.09,55.32H46.67c-0.41,0-0.74-0.33-0.74-0.74c0-0.41,0.33-0.74,0.74-0.74h15.42c0.41,0,0.74,0.33,0.74,0.74
	C62.83,54.99,62.49,55.32,62.09,55.32z"/>
<circle class="st0" cx="53.07" cy="41.08" r="0.75"/>
<line class="st0" x1="27.38" y1="54.58" x2="25" y2="54.58"/>
<path class="st0" d="M38.07,26.44c-0.36-0.13-0.75,0.04-0.92,0.38L24.33,54.27c0,0,0,0.01,0,0.02c-0.01,0.01-0.01,0.03-0.01,0.04
	c-0.03,0.07-0.04,0.15-0.05,0.23c0,0.01-0.01,0.02-0.01,0.03c0,0.01,0,0.01,0,0.02c0,0.09,0.02,0.17,0.05,0.25
	c0.01,0.02,0.02,0.03,0.02,0.05c0.01,0.03,0.02,0.05,0.04,0.08c0.02,0.04,0.06,0.07,0.09,0.1c0.01,0.01,0.01,0.02,0.02,0.03
	c0.06,0.06,0.13,0.1,0.21,0.14c0.02,0.01,0.04,0.01,0.05,0.02c0.08,0.03,0.17,0.05,0.26,0.05h2.38h3.6l0,0h3.99
	c0.41,0,0.74-0.33,0.74-0.74c0-0.41-0.33-0.74-0.74-0.74h-3.05l6.61-26.52C38.63,26.95,38.43,26.57,38.07,26.44z M30.4,53.84h-3.02
	h-1.22l9.1-19.47L30.4,53.84z"/>
</svg>
