<?xml version="1.0" encoding="utf-8"?>
<!-- Generator: Adobe Illustrator 25.2.1, SVG Export Plug-In . SVG Version: 6.00 Build 0)  -->
<svg version="1.0" id="Layer_1" xmlns="http://www.w3.org/2000/svg" xmlns:xlink="http://www.w3.org/1999/xlink" x="0px" y="0px"
	 viewBox="0 0 90.89 56.77" style="enable-background:new 0 0 90.89 56.77;" xml:space="preserve">
<style type="text/css">
	.st0{fill:#419B49;}
</style>
<g>
	<path class="st0" d="M28.09,46.13c-0.13,0-0.25-0.02-0.37-0.07c-0.12-0.05-0.22-0.12-0.31-0.21c-0.18-0.18-0.29-0.43-0.29-0.69
		c0-0.06,0.01-0.13,0.02-0.19c0.01-0.06,0.03-0.12,0.05-0.18s0.06-0.12,0.09-0.17c0.03-0.05,0.08-0.1,0.12-0.15
		c0.36-0.36,1-0.36,1.37,0c0.18,0.18,0.28,0.43,0.28,0.68c0,0.06,0,0.13-0.02,0.19c-0.01,0.06-0.03,0.13-0.05,0.18
		s-0.05,0.11-0.09,0.17c-0.04,0.05-0.08,0.1-0.12,0.15C28.6,46.03,28.36,46.13,28.09,46.13z"/>
	<path class="st0" d="M27.19,33.49h-3.17c-0.54,0-0.97-0.43-0.97-0.97c0-0.54,0.43-0.97,0.97-0.97h3.17c0.54,0,0.97,0.43,0.97,0.97
		C28.16,33.05,27.73,33.49,27.19,33.49z"/>
	<path class="st0" d="M45.45,54.91c-5.25,0-10.36-1.86-14.38-5.22c-0.41-0.34-0.46-0.96-0.12-1.37c0.34-0.41,0.95-0.46,1.37-0.12
		c3.67,3.08,8.33,4.77,13.13,4.77c11.28,0,20.46-9.18,20.46-20.46s-9.18-20.46-20.46-20.46s-20.46,9.18-20.46,20.46
		c0,2.85,0.57,5.6,1.7,8.19c0.21,0.49-0.01,1.06-0.5,1.28c-0.49,0.21-1.06-0.01-1.28-0.5c-1.24-2.83-1.87-5.85-1.87-8.96
		c0-12.35,10.05-22.4,22.4-22.4s22.4,10.05,22.4,22.4S57.8,54.91,45.45,54.91z"/>
	<path class="st0" d="M45.45,33.49c-0.28,0-0.55-0.12-0.74-0.35L33.56,19.82c-0.34-0.41-0.29-1.02,0.12-1.37
		c0.41-0.34,1.02-0.29,1.37,0.12l11.15,13.31c0.34,0.41,0.29,1.02-0.12,1.37C45.89,33.41,45.67,33.49,45.45,33.49z"/>
	<path class="st0" d="M45.45,33.57c-0.28,0-0.55-0.12-0.74-0.35c-0.34-0.41-0.29-1.02,0.12-1.37l11.14-9.33
		c0.41-0.34,1.02-0.29,1.37,0.12c0.34,0.41,0.29,1.02-0.12,1.37l-11.14,9.33C45.89,33.5,45.67,33.57,45.45,33.57z"/>
	<path class="st0" d="M45.45,15.23c-0.54,0-0.97-0.43-0.97-0.97v-3.17c0-0.54,0.43-0.97,0.97-0.97c0.54,0,0.97,0.43,0.97,0.97v3.17
		C46.42,14.8,45.98,15.23,45.45,15.23z"/>
	<path class="st0" d="M45.45,54.91c-0.54,0-0.97-0.43-0.97-0.97v-3.17c0-0.54,0.43-0.97,0.97-0.97c0.54,0,0.97,0.43,0.97,0.97v3.17
		C46.42,54.48,45.98,54.91,45.45,54.91z"/>
	<path class="st0" d="M66.87,33.49H63.7c-0.54,0-0.97-0.43-0.97-0.97c0-0.54,0.43-0.97,0.97-0.97h3.17c0.54,0,0.97,0.43,0.97,0.97
		C67.84,33.05,67.41,33.49,66.87,33.49z"/>
	<path class="st0" d="M60.68,16.97c-0.19,0-0.39-0.06-0.55-0.17c-0.44-0.31-0.55-0.91-0.24-1.35l1.37-1.96l-4.35-2.84l-1.66,2.13
		c-0.33,0.42-0.94,0.5-1.36,0.17c-0.42-0.33-0.5-0.94-0.17-1.36l2.21-2.84c0.31-0.4,0.87-0.49,1.3-0.22l5.93,3.87
		c0.22,0.14,0.37,0.37,0.42,0.63c0.05,0.26-0.01,0.52-0.16,0.74l-1.94,2.78C61.29,16.83,60.99,16.97,60.68,16.97z"/>
	<path class="st0" d="M48.63,11.71h-6.36c-0.54,0-0.97-0.43-0.97-0.97V9.83h-0.26c-0.54,0-0.97-0.43-0.97-0.97v-4
		c0-1.92,1.82-2.9,5.42-2.9c3.54,0,5.33,0.97,5.33,2.9v4c0,0.54-0.43,0.97-0.97,0.97H49.6v0.91C49.6,11.28,49.16,11.71,48.63,11.71z
		 M43.24,9.77h4.42V8.86c0-0.54,0.43-0.97,0.97-0.97h0.26V4.86c0-0.59-1.3-0.96-3.39-0.96c-2.11,0-3.48,0.38-3.48,0.96v3.03h0.26
		c0.54,0,0.97,0.43,0.97,0.97V9.77z"/>
</g>
</svg>
