<?xml version="1.0" encoding="utf-8"?>
<!-- Generator: Adobe Illustrator 25.2.1, SVG Export Plug-In . SVG Version: 6.00 Build 0)  -->
<svg version="1.0" id="Layer_1" xmlns="http://www.w3.org/2000/svg" xmlns:xlink="http://www.w3.org/1999/xlink" x="0px" y="0px"
	 viewBox="0 0 90.89 56.77" style="enable-background:new 0 0 90.89 56.77;" xml:space="preserve">
<style type="text/css">
	.st0{fill:#419B49;}
</style>
<g>
	<circle class="st0" cx="52.43" cy="35.99" r="0.88"/>
	<path class="st0" d="M41.56,41.55c-0.03,0-0.06,0-0.09-0.01c-16.91-1.83-19.72-15.2-21.98-25.95c-0.99-4.71-1.92-9.16-3.84-12.2
		c-0.19-0.31-0.18-0.7,0.04-0.99c0.22-0.29,0.59-0.41,0.94-0.3c0.34,0.1,8.47,2.6,15.78,8.61c9.78,8.03,13.23,18.48,9.99,30.2
		C42.29,41.29,41.95,41.55,41.56,41.55z M18.2,4.5c1.37,3.05,2.16,6.8,2.99,10.74c2.22,10.56,4.73,22.5,19.73,24.49
		c2.76-10.85-0.46-20.15-9.57-27.65C26.46,8.06,21.07,5.62,18.2,4.5z"/>
	<path class="st0" d="M55.58,51.29c-2.4,0-5.18-0.36-8.41-1.18c-0.35-0.09-0.61-0.39-0.65-0.75c-0.48-4.49,0.55-8.37,3.04-11.53
		c0.3-0.38,0.84-0.44,1.22-0.14c0.38,0.3,0.44,0.84,0.14,1.22c-2.09,2.65-3.01,5.9-2.73,9.67c15.79,3.81,19.27-3.93,22.63-11.42
		c1.15-2.57,2.26-5.02,3.83-6.87c-2.99,0.11-8.56,0.57-13.81,2.33c-0.46,0.15-0.95-0.09-1.1-0.55c-0.15-0.45,0.09-0.95,0.55-1.1
		c7.92-2.65,16.26-2.46,16.61-2.45c0.37,0.01,0.7,0.26,0.81,0.61c0.11,0.36-0.02,0.74-0.32,0.96c-2.2,1.57-3.55,4.59-4.98,7.78
		C69.67,43.96,66.38,51.29,55.58,51.29z"/>
	<path class="st0" d="M34.79,51.3c-4.41,0-9.16-4.7-13.17-8.67c-2.28-2.26-4.43-4.39-6.21-5.42c-0.31-0.18-0.48-0.54-0.42-0.89
		c0.06-0.36,0.33-0.64,0.68-0.71c0.54-0.11,13.36-2.55,23.39,12.94c0.23,0.36,0.17,0.84-0.16,1.12C37.6,50.81,36.21,51.3,34.79,51.3
		z M18.29,37.13c1.43,1.17,2.96,2.69,4.55,4.26c4.8,4.75,10.2,10.11,14.32,7.42C30.24,38.59,22.16,37.16,18.29,37.13z"/>
	<path class="st0" d="M43.28,54.91c-0.08,0-0.17-0.01-0.25-0.04c-0.46-0.14-0.72-0.63-0.58-1.08c2.25-7.34,16-14.37,16.59-14.66
		c0.43-0.22,0.95-0.04,1.17,0.38c0.22,0.43,0.05,0.95-0.38,1.17c-0.14,0.07-13.68,6.99-15.71,13.62
		C44,54.67,43.65,54.91,43.28,54.91z"/>
	<path class="st0" d="M43.28,54.91c-0.09,0-0.19-0.01-0.28-0.05c-0.45-0.15-0.7-0.65-0.55-1.1c1.06-3.15-4.13-14.81-7.88-21.87
		c-0.22-0.42-0.06-0.95,0.36-1.17c0.42-0.22,0.95-0.06,1.17,0.36c0.99,1.87,9.62,18.38,7.99,23.24
		C43.98,54.68,43.64,54.91,43.28,54.91z"/>
	<path class="st0" d="M43.27,54.91c-0.23,0-0.47-0.09-0.64-0.28c-1.98-2.15-4.85-4.02-7.63-5.83c-2.18-1.42-4.24-2.76-5.64-4.12
		c-0.34-0.33-0.36-0.88-0.02-1.23c0.33-0.34,0.88-0.36,1.23-0.02c1.29,1.24,3.28,2.54,5.39,3.91c2.73,1.78,5.83,3.81,7.96,6.11
		c0.33,0.35,0.3,0.9-0.05,1.23C43.69,54.84,43.48,54.91,43.27,54.91z"/>
</g>
</svg>
