<?xml version="1.0" encoding="utf-8"?>
<!-- Generator: Adobe Illustrator 25.2.1, SVG Export Plug-In . SVG Version: 6.00 Build 0)  -->
<svg version="1.0" id="Layer_1" focusable="false" xmlns="http://www.w3.org/2000/svg" xmlns:xlink="http://www.w3.org/1999/xlink"
	 x="0px" y="0px" viewBox="0 0 448 512" style="enable-background:new 0 0 448 512;" xml:space="preserve">
<style type="text/css">
	.st0{fill:#EEF2F2;}
</style>
<path class="st0" d="M400,32H48C21.49,32,0,53.49,0,80v352c0,26.51,21.49,48,48,48h137.25V327.69h-63V256h63v-54.64
	c0-62.15,37-96.48,93.67-96.48c27.14,0,55.52,4.84,55.52,4.84v61h-31.27c-30.81,0-40.42,19.12-40.42,38.73V256h68.78l-11,71.69
	h-57.78V480H400c26.51,0,48-21.49,48-48V80C448,53.49,426.51,32,400,32z"/>
</svg>
