<?xml version="1.0" encoding="utf-8"?>
<!-- Generator: Adobe Illustrator 25.2.1, SVG Export Plug-In . SVG Version: 6.00 Build 0)  -->
<svg version="1.0" id="Layer_1" xmlns="http://www.w3.org/2000/svg" xmlns:xlink="http://www.w3.org/1999/xlink" x="0px" y="0px"
	 viewBox="0 0 366 112.06" style="enable-background:new 0 0 366 112.06;" xml:space="preserve">
<style type="text/css">
	.st0{fill:#419B49;}
</style>
<g>
	<polyline class="st0" points="24.4,4.77 6.69,107.13 25.97,107.13 43.68,4.77 24.4,4.77 	"/>
	<polyline class="st0" points="109.45,34.11 96.82,107.13 116.09,107.13 128.74,34.03 	"/>
	<polygon class="st0" points="130.97,23.67 133.8,4.77 114.53,4.77 111.65,23.67 	"/>
	<polygon class="st0" points="80.32,4.77 35.84,50.08 34.32,58.85 65.34,107.13 84.85,107.13 53.88,55.95 104.12,4.77 	"/>
	<polygon class="st0" points="182.73,35.11 170.99,35.11 171.17,34.03 171.13,34.03 175.05,4.77 157,4.77 151.89,34.11 
		151.89,34.11 151.71,35.1 151.71,35.11 140.48,35.11 137.22,52.2 148.76,52.2 139.25,107.13 158.53,107.13 168.03,52.2 
		179.85,52.2 	"/>
	<path class="st0" d="M236.54,87.84c-4.37,4.65-10.53,7.33-17.13,6.82c-12.01-0.92-20.95-12.05-19.97-24.85s11.52-22.44,23.53-21.51
		c9.3,0.71,16.75,7.54,19.19,16.53h-24.79v14.3h58.19l3.11-14.3h-19.87c-2.73-17.97-16.68-32.45-34.51-33.82
		c-20.97-1.61-39.36,15.2-41.08,37.56s13.89,41.78,34.86,43.39c16.58,1.27,31.54-8.96,37.93-24.35L236.54,87.84z"/>
	<polygon class="st0" points="360.31,4.77 336.28,4.77 313.64,35.42 300.94,4.77 278.68,4.77 299.7,54.28 260.66,107.13 
		283.27,107.13 308.12,74.11 322.14,107.13 343.35,107.13 322.02,55.65 	"/>
</g>
</svg>
