<?xml version="1.0" encoding="utf-8"?>
<!-- Generator: Adobe Illustrator 25.2.1, SVG Export Plug-In . SVG Version: 6.00 Build 0)  -->
<svg version="1.0" id="Layer_1" xmlns="http://www.w3.org/2000/svg" xmlns:xlink="http://www.w3.org/1999/xlink" x="0px" y="0px"
	 viewBox="0 0 90.89 56.77" style="enable-background:new 0 0 90.89 56.77;" xml:space="preserve">
<style type="text/css">
	.st0{fill:#419B49;}
</style>
<circle class="st0" cx="47.27" cy="22.32" r="0.9"/>
<path class="st0" d="M45.45,28.92c-14.38,0-26.09-11.7-26.09-26.09c0-0.49,0.4-0.89,0.89-0.89h50.39c0.49,0,0.89,0.4,0.89,0.89
	C71.53,17.22,59.83,28.92,45.45,28.92z M21.16,3.72c0.47,12.99,11.19,23.41,24.29,23.41S69.26,16.71,69.74,3.72H21.16z"/>
<path class="st0" d="M50.81,22.55c-0.39,0-0.75-0.26-0.86-0.65c-0.13-0.47,0.14-0.97,0.61-1.1c2.06-0.58,3.99-1.51,5.73-2.76
	c3.11-2.22,5.44-5.29,6.73-8.87c0.17-0.46,0.68-0.7,1.14-0.54c0.46,0.17,0.7,0.68,0.54,1.14c-1.41,3.92-3.96,7.28-7.37,9.71
	c-1.91,1.37-4.03,2.39-6.28,3.03C50.97,22.54,50.89,22.55,50.81,22.55z"/>
<path class="st0" d="M60.87,54.91c-4.49,0-8.14-3.65-8.14-8.14c0-4.49,3.65-8.14,8.14-8.14c4.49,0,8.14,3.65,8.14,8.14
	C69.01,51.26,65.36,54.91,60.87,54.91z M60.87,40.41c-3.51,0-6.36,2.85-6.36,6.36s2.85,6.36,6.36,6.36s6.36-2.85,6.36-6.36
	S64.38,40.41,60.87,40.41z"/>
<path class="st0" d="M60.87,50.65c-2.14,0-3.88-1.74-3.88-3.88c0-2.14,1.74-3.88,3.88-3.88c2.14,0,3.88,1.74,3.88,3.88
	C64.75,48.91,63.01,50.65,60.87,50.65z M60.87,44.67c-1.16,0-2.1,0.94-2.1,2.1c0,1.16,0.94,2.1,2.1,2.1c1.16,0,2.1-0.94,2.1-2.1
	C62.97,45.61,62.03,44.67,60.87,44.67z"/>
<path class="st0" d="M57.89,40.41c-0.37,0-0.72-0.24-0.85-0.61l-4.26-12.85c-0.15-0.47,0.1-0.97,0.57-1.13
	c0.47-0.15,0.97,0.1,1.13,0.57l4.26,12.85c0.15,0.47-0.1,0.97-0.57,1.13C58.07,40.4,57.98,40.41,57.89,40.41z"/>
<path class="st0" d="M28.9,50.65c-0.09,0-0.19-0.01-0.28-0.05c-0.47-0.15-0.72-0.66-0.57-1.13l7.66-23.09
	c0.16-0.47,0.66-0.72,1.13-0.57c0.47,0.16,0.72,0.66,0.57,1.13l-7.66,23.09C29.62,50.41,29.27,50.65,28.9,50.65z"/>
<path class="st0" d="M48.17,35.61H33.89c-0.49,0-0.89-0.4-0.89-0.89c0-0.49,0.4-0.89,0.89-0.89h14.28c0.49,0,0.89,0.4,0.89,0.89
	C49.06,35.21,48.66,35.61,48.17,35.61z"/>
</svg>
