<?xml version="1.0" encoding="utf-8"?>
<!-- Generator: Adobe Illustrator 25.2.1, SVG Export Plug-In . SVG Version: 6.00 Build 0)  -->
<svg version="1.0" id="Layer_1" xmlns="http://www.w3.org/2000/svg" xmlns:xlink="http://www.w3.org/1999/xlink" x="0px" y="0px"
	 viewBox="0 0 90.89 56.77" style="enable-background:new 0 0 90.89 56.77;" xml:space="preserve">
<style type="text/css">
	.st0{fill:#419B49;}
</style>
<g>
	<path class="st0" d="M40.31,52.4h-8.5c-2.82,0-5.41-1.55-6.75-4.03l-5.43-10.12c-0.26-0.48-0.15-1.06,0.26-1.41
		c0.41-0.35,1-0.37,1.43-0.05c1.39,1.05,2.74,1.65,3.7,1.65h5.86c0.54,0,0.97,0.43,0.97,0.97s-0.43,0.97-0.97,0.97h-5.86
		c-0.78,0-1.58-0.21-2.33-0.53l4.08,7.6c1,1.86,2.93,3.01,5.04,3.01h8.5l0.02-10.06l-2.54-0.02c-0.54,0-0.97-0.43-0.97-0.97
		s0.43-0.97,0.97-0.97h2.52c1.08,0,1.96,0.88,1.96,1.96v10.04C42.26,51.53,41.39,52.4,40.31,52.4z"/>
	<path class="st0" d="M26.1,37.23c-1.48,0-3.16-0.52-4.75-1.49c-3.72-2.28-4.64-5.31-3.64-7.12l0,0l3.06-5.53l-1.3-1.18
		c-0.46-0.42-0.62-1.07-0.39-1.66c0.23-0.59,0.78-0.97,1.41-0.97h8.81c0.88,0,1.69,0.48,2.11,1.26l4.37,8.08
		c0.31,0.58,0.22,1.28-0.23,1.76c-0.45,0.48-1.15,0.6-1.75,0.32l-1-0.48l-3.08,5.16c-0.36,0.76-1.08,1.34-2.02,1.64
		C27.19,37.16,26.66,37.23,26.1,37.23z M18.55,29.09l0.85,0.47c-0.45,0.82,0.17,2.83,2.96,4.53c2.03,1.25,3.78,1.37,4.74,1.07
		c0.43-0.13,0.74-0.36,0.86-0.63c0.02-0.04,0.03-0.07,0.05-0.11l3.56-5.96c0.26-0.43,0.8-0.59,1.25-0.38l0.61,0.29l-3.74-6.92
		c-0.08-0.15-0.23-0.24-0.4-0.24h-7.7l1.05,0.95c0.33,0.3,0.41,0.79,0.2,1.19l-3.43,6.2L18.55,29.09z"/>
	<path class="st0" d="M37.25,22.5c-0.2,0-0.4-0.06-0.57-0.19l-9.76-7.09c-0.22-0.16-0.36-0.4-0.39-0.67
		c-0.03-0.27,0.05-0.54,0.22-0.74l5.9-6.98c0.44-0.71,1.2-1.2,2.16-1.4c1.82-0.37,4.13,0.33,6.18,1.9c3.47,2.64,4.09,5.75,2.91,7.45
		c-0.01,0.02-0.03,0.04-0.04,0.05l-5.84,7.3C37.81,22.38,37.53,22.5,37.25,22.5z M28.9,14.27l8.17,5.93l5.24-6.55
		c0.51-0.79,0.07-2.82-2.5-4.78c-1.9-1.44-3.63-1.74-4.61-1.54c-0.44,0.09-0.77,0.28-0.91,0.54c-0.03,0.05-0.06,0.1-0.1,0.15
		L28.9,14.27z"/>
	<path class="st0" d="M51.18,21.17c-0.6,0-1.15-0.36-1.39-0.92c-0.26-0.6-0.1-1.3,0.4-1.73l0.87-0.75L43.3,7.14
		c-0.57-0.77-1.85-1.51-3.51-2.01c-0.52-0.16-0.85-0.64-0.81-1.18c0.04-0.54,0.45-0.97,0.98-1.04l11.37-1.59
		c2.8-0.39,5.57,0.78,7.24,3.06l3.79,5.18l1.58-0.72c0.57-0.26,1.23-0.14,1.68,0.3c0.45,0.44,0.58,1.1,0.33,1.68l-3.49,8.09
		c-0.35,0.81-1.11,1.36-1.99,1.44l-9.15,0.81C51.28,21.17,51.23,21.17,51.18,21.17z M43.05,4.43c0.7,0.42,1.35,0.94,1.81,1.57
		l7.8,10.66c0.01,0.01,0.02,0.03,0.03,0.04l0.46,0.71c0.27,0.41,0.19,0.94-0.17,1.26l-0.51,0.44l7.83-0.7
		c0.17-0.01,0.31-0.12,0.38-0.27l3.05-7.08l-1.29,0.59c-0.42,0.19-0.91,0.06-1.18-0.31L57,5.53c-1.25-1.7-3.32-2.58-5.41-2.29
		L43.05,4.43z M40.35,3.28C40.35,3.28,40.35,3.28,40.35,3.28C40.35,3.28,40.35,3.28,40.35,3.28z"/>
	<path class="st0" d="M51.94,55.04c-0.5,0-0.98-0.25-1.26-0.69l-4.79-7.4c-0.48-0.74-0.51-1.68-0.09-2.45l4.41-8.06
		c0.32-0.58,0.96-0.88,1.61-0.76c0.64,0.12,1.13,0.64,1.22,1.29l0.15,1.14l13.15-0.55c0.96-0.04,2.28-0.7,3.63-1.8
		c0.42-0.34,1.01-0.35,1.43-0.01c0.43,0.34,0.56,0.91,0.32,1.4l-5,10.33c-1.23,2.54-3.75,4.2-6.57,4.31l-6.41,0.27l-0.28,1.72
		c-0.1,0.62-0.57,1.1-1.18,1.23C52.15,55.03,52.05,55.04,51.94,55.04z M51.28,38.53l-3.78,6.9c-0.08,0.15-0.07,0.33,0.02,0.47
		l4.19,6.47l0.23-1.4c0.07-0.45,0.46-0.79,0.91-0.81l7.2-0.3c2.11-0.09,3.99-1.32,4.91-3.22l3.76-7.77
		c-0.74,0.35-1.53,0.6-2.31,0.63l-13.2,0.55c-0.02,0-0.03,0-0.05,0l-0.84-0.01c-0.48,0-0.89-0.37-0.95-0.85L51.28,38.53z"/>
	<path class="st0" d="M64.81,35.91c-1.57,0-2.77-0.61-3.39-1.55c-0.01-0.02-0.02-0.04-0.03-0.06l-4.57-8.16
		c-0.25-0.45-0.11-1.02,0.33-1.3l10.24-6.38c0.23-0.14,0.51-0.18,0.77-0.11c0.26,0.07,0.48,0.25,0.6,0.48l4.25,8.09
		c0.49,0.67,0.66,1.56,0.48,2.53c-0.34,1.83-1.86,3.7-4.08,5.01C67.71,35.48,66.13,35.91,64.81,35.91z M63.06,33.32
		c0.54,0.77,2.59,1.13,5.37-0.52c2.05-1.21,2.98-2.7,3.16-3.7c0.08-0.45,0.03-0.82-0.16-1.05c-0.04-0.05-0.07-0.1-0.1-0.15
		l-3.81-7.24L58.96,26L63.06,33.32z"/>
	<path class="st0" d="M34.48,40.38c-0.26,0-0.5-0.1-0.68-0.29c-0.05-0.04-0.09-0.09-0.12-0.15c-0.04-0.05-0.07-0.11-0.09-0.16
		c-0.02-0.06-0.04-0.12-0.05-0.18c-0.01-0.06-0.02-0.13-0.02-0.19s0.01-0.13,0.02-0.19c0.01-0.06,0.03-0.12,0.05-0.18
		c0.02-0.06,0.06-0.12,0.09-0.17c0.03-0.05,0.08-0.1,0.12-0.15c0.35-0.36,1.01-0.36,1.37,0c0.18,0.18,0.29,0.43,0.29,0.68
		c0,0.06,0,0.13-0.02,0.19c-0.01,0.06-0.03,0.12-0.05,0.18c-0.02,0.06-0.05,0.11-0.09,0.16c-0.04,0.05-0.08,0.1-0.13,0.15
		c-0.09,0.09-0.19,0.16-0.31,0.21C34.73,40.36,34.61,40.38,34.48,40.38z"/>
</g>
</svg>
